<?xml version="1.0" encoding="UTF-8"?>
<!-- Generated by Pixelmator Pro 3.6.14 -->
<svg width="4267" height="4267" viewBox="0 0 4267 4267" xmlns="http://www.w3.org/2000/svg">
    <g id="g1">
        <linearGradient id="linearGradient1" x1="3596.532549" y1="3662.408952" x2="680.238631" y2="690.396432" gradientUnits="userSpaceOnUse">
            <stop offset="0" stop-color="#601b36" stop-opacity="1"/>
            <stop offset="1" stop-color="#ffffff" stop-opacity="1"/>
        </linearGradient>
        <path id="path1" fill="url(#linearGradient1)" fill-rule="evenodd" stroke="none" d="M 0 3302 C -0 3834.954834 432.045227 4267 965 4267 L 3302 4267 C 3834.954834 4267 4267 3834.954834 4267 3302 L 4267 965 C 4267 432.045166 3834.954834 0 3302 0 L 965 0 C 432.045227 0 0 432.045166 0 965 Z"/>
        <path id="--2" fill="#ffffff" fill-rule="evenodd" stroke="none" d="M 2346 605 C 2346 605 2527.961426 853.32959 2632 1155 C 2673.932861 1276.588379 2727.989258 1619.218262 2716 1809 C 2709.848145 1906.37915 2702.106445 1942.109375 2688 2007 C 2677.56543 2055 2648 2147 2648 2147 C 2648 2147 2447.617188 2016.254639 2220 1853 C 2048.288818 1729.843018 1857.547729 1571.488281 1727 1466 C 1508.540161 1289.475098 1084 886 1084 886 C 1084 886 1291.862427 1212.518555 1415 1369 C 1588.529175 1589.518555 1959 2014 1959 2014 C 1959 2014 1446.744385 1653.010254 1200 1468 C 1016.609131 1328.258789 677 1043 677 1043 C 677 1043 783.656555 1207.443115 939 1408 C 1066.099121 1572.091797 1232.755493 1763.268555 1342 1884 C 1603.53772 2173.038086 2194 2698 2194 2698 C 2194 2698 1757.001343 2908.519775 1413 2857 C 1129.194458 2814.495605 371 2474 371 2474 C 371 2474 579.291504 2831.09375 928 3090 C 1225.048096 3310.549805 1388.328003 3418.837891 1733 3483 C 1875.237061 3509.478027 2046.664795 3538.244629 2338 3476 C 2646.867432 3410.009521 2947.822021 3248.332031 3060 3230 C 3186.70752 3209.293457 3287.80127 3237.716309 3391 3299 C 3446.568359 3331.999023 3470.90332 3380.402832 3505 3427 C 3524.383545 3453.48999 3558 3517 3558 3517 C 3558 3517 3579.742432 3434.581543 3584 3383 C 3595.310059 3245.973389 3605.000244 3150.783203 3528 2963 C 3466.60498 2813.273926 3419.909424 2764.396484 3389 2720 C 3371.726074 2695.188477 3347.953369 2683.244629 3338 2645 C 3366.746826 2508.626709 3435.45166 2117.849121 3336 1803 C 3267.866211 1587.29834 3063.026855 1247.643311 2918 1075 C 2636.476807 739.868896 2346 605 2346 605 Z"/>
        <path id="path2" fill="#d73a21" fill-rule="evenodd" stroke="none" d="M 2395 605 C 2395 605 2576.961426 853.32959 2681 1155 C 2722.932861 1276.588379 2776.989258 1619.218262 2765 1809 C 2758.848145 1906.37915 2751.106445 1942.109375 2737 2007 C 2726.56543 2055 2697 2147 2697 2147 C 2697 2147 2496.617188 2016.254639 2269 1853 C 2097.288818 1729.843018 1906.547729 1571.488281 1776 1466 C 1557.540161 1289.475098 1133 886 1133 886 C 1133 886 1340.862427 1212.518555 1464 1369 C 1637.529175 1589.518555 2008 2014 2008 2014 C 2008 2014 1495.744385 1653.010254 1249 1468 C 1065.609131 1328.258789 726 1043 726 1043 C 726 1043 832.656555 1207.443115 988 1408 C 1115.099121 1572.091797 1281.755493 1763.268555 1391 1884 C 1652.53772 2173.038086 2243 2698 2243 2698 C 2243 2698 1806.001343 2908.519775 1462 2857 C 1178.194458 2814.495605 420 2474 420 2474 C 420 2474 628.291504 2831.09375 977 3090 C 1274.048096 3310.549805 1437.328003 3418.837891 1782 3483 C 1924.237061 3509.478027 2095.664795 3538.244629 2387 3476 C 2695.867432 3410.009521 2996.822021 3248.332031 3109 3230 C 3235.70752 3209.293457 3336.80127 3237.716309 3440 3299 C 3495.568359 3331.999023 3519.90332 3380.402832 3554 3427 C 3573.383545 3453.48999 3607 3517 3607 3517 C 3607 3517 3628.742432 3434.581543 3633 3383 C 3644.310059 3245.973389 3654.000244 3150.783203 3577 2963 C 3515.60498 2813.273926 3468.909424 2764.396484 3438 2720 C 3420.726074 2695.188477 3396.953369 2683.244629 3387 2645 C 3415.746826 2508.626709 3484.45166 2117.849121 3385 1803 C 3316.866211 1587.29834 3112.026855 1247.643311 2967 1075 C 2685.476807 739.868896 2395 605 2395 605 Z"/>
    </g>
</svg>
