<?xml version="1.0" encoding="UTF-8"?>
<!-- Generated by Pixelmator Pro 3.6.14 -->
<svg width="4267" height="4267" viewBox="0 0 4267 4267" xmlns="http://www.w3.org/2000/svg">
    <g id="version-2">
        <g id="g1">
            <path id="path1" fill="#601b36" fill-rule="evenodd" stroke="none" d="M 0 3302 C -0 3834.954834 432.045227 4267 965 4267 L 3302 4267 C 3834.954834 4267 4267 3834.954834 4267 3302 L 4267 965 C 4267 432.045166 3834.954834 0 3302 0 L 965 0 C 432.045227 0 0 432.045166 0 965 Z"/>
            <path id="path2" fill="#a33865" fill-rule="evenodd" stroke="none" d="M 965 4267 C 432.045227 4267 0 3834.954834 0 3302 L 0 965 C 0 432.045166 432.045227 0 965 0 L 3302 0 C 3834.954834 0 4267 432.045166 4267 965 L 4267 3302 C 4267 3834.954834 3834.954834 4267 3302 4267 L 965 4267 Z M 100 3302 L 100 965 C 100 487.273651 487.273682 100 965 100 L 3302 100 C 3779.726318 100 4167 487.273651 4167 965 L 4167 3302 C 4167 3779.726318 3779.726318 4167 3302 4167 L 965 4167 C 487.273682 4167 100 3779.726318 100 3302 Z"/>
        </g>
        <linearGradient id="linearGradient1" x1="2862.273086" y1="2781.493711" x2="290.795791" y2="550.996195" gradientUnits="userSpaceOnUse">
            <stop offset="0" stop-color="#ffffff" stop-opacity="0"/>
            <stop offset="1" stop-color="#ff5034" stop-opacity="1"/>
        </linearGradient>
        <path id="--2" fill="url(#linearGradient1)" fill-rule="evenodd" stroke="none" d="M 2290 621 C 2290 621 2471.961426 869.32959 2576 1171 C 2617.932861 1292.588379 2671.989258 1635.218262 2660 1825 C 2653.848145 1922.37915 2646.106445 1958.109375 2632 2023 C 2621.56543 2071 2592 2163 2592 2163 C 2592 2163 2391.617188 2032.254639 2164 1869 C 1992.288818 1745.843018 1801.547729 1587.488281 1671 1482 C 1452.540161 1305.475098 1028 902 1028 902 C 1028 902 1235.862427 1228.518555 1359 1385 C 1532.529175 1605.518555 1903 2030 1903 2030 C 1903 2030 1390.744385 1669.010254 1144 1484 C 960.609131 1344.258789 621 1059 621 1059 C 621 1059 727.656555 1223.443115 883 1424 C 1010.099121 1588.091797 1176.755493 1779.268555 1286 1900 C 1547.53772 2189.038086 2138 2714 2138 2714 C 2138 2714 1701.001343 2924.519775 1357 2873 C 1073.194458 2830.495605 315 2490 315 2490 C 315 2490 523.291504 2847.09375 872 3106 C 1169.048096 3326.549805 1332.328003 3434.837891 1677 3499 C 1819.237061 3525.478027 1990.664795 3554.244629 2282 3492 C 2590.867432 3426.009521 2891.822021 3264.332031 3004 3246 C 3130.70752 3225.293457 3231.80127 3253.716309 3335 3315 C 3390.568359 3347.999023 3414.90332 3396.402832 3449 3443 C 3468.383545 3469.48999 3502 3533 3502 3533 C 3502 3533 3523.742432 3450.581543 3528 3399 C 3539.310059 3261.973389 3549.000244 3166.783203 3472 2979 C 3410.60498 2829.273926 3363.909424 2780.396484 3333 2736 C 3315.726074 2711.188477 3291.953369 2699.244629 3282 2661 C 3310.746826 2524.626709 3379.45166 2133.849121 3280 1819 C 3211.866211 1603.29834 3007.026855 1263.643311 2862 1091 C 2580.476807 755.868896 2290 621 2290 621 Z"/>
        <path id="path3" fill="#ffffff" fill-opacity="0.954615" fill-rule="evenodd" stroke="none" d="M 2395 605 C 2395 605 2576.961426 853.32959 2681 1155 C 2722.932861 1276.588379 2776.989258 1619.218262 2765 1809 C 2758.848145 1906.37915 2751.106445 1942.109375 2737 2007 C 2726.56543 2055 2697 2147 2697 2147 C 2697 2147 2496.617188 2016.254639 2269 1853 C 2097.288818 1729.843018 1906.547729 1571.488281 1776 1466 C 1557.540161 1289.475098 1133 886 1133 886 C 1133 886 1340.862427 1212.518555 1464 1369 C 1637.529175 1589.518555 2008 2014 2008 2014 C 2008 2014 1495.744385 1653.010254 1249 1468 C 1065.609131 1328.258789 726 1043 726 1043 C 726 1043 832.656555 1207.443115 988 1408 C 1115.099121 1572.091797 1281.755493 1763.268555 1391 1884 C 1652.53772 2173.038086 2243 2698 2243 2698 C 2243 2698 1806.001343 2908.519775 1462 2857 C 1178.194458 2814.495605 420 2474 420 2474 C 420 2474 628.291504 2831.09375 977 3090 C 1274.048096 3310.549805 1437.328003 3418.837891 1782 3483 C 1924.237061 3509.478027 2095.664795 3538.244629 2387 3476 C 2695.867432 3410.009521 2996.822021 3248.332031 3109 3230 C 3235.70752 3209.293457 3336.80127 3237.716309 3440 3299 C 3495.568359 3331.999023 3519.90332 3380.402832 3554 3427 C 3573.383545 3453.48999 3607 3517 3607 3517 C 3607 3517 3628.742432 3434.581543 3633 3383 C 3644.310059 3245.973389 3654.000244 3150.783203 3577 2963 C 3515.60498 2813.273926 3468.909424 2764.396484 3438 2720 C 3420.726074 2695.188477 3396.953369 2683.244629 3387 2645 C 3415.746826 2508.626709 3484.45166 2117.849121 3385 1803 C 3316.866211 1587.29834 3112.026855 1247.643311 2967 1075 C 2685.476807 739.868896 2395 605 2395 605 Z"/>
    </g>
</svg>
